<svg version="1.1" id="Uploaded to svgrepo.com" xmlns="http://www.w3.org/2000/svg" xmlns:xlink="http://www.w3.org/1999/xlink" viewBox="0 0 32 32" xml:space="preserve" fill="#7ed957"><g id="SVGRepo_bgCarrier" stroke-width="0"></g><g id="SVGRepo_tracerCarrier" stroke-linecap="round" stroke-linejoin="round"></g><g id="SVGRepo_iconCarrier"> <style type="text/css"> .linesandangles_een{fill:#7ed957;} </style> <path class="linesandangles_een" d="M27.5,4.5c-3.038-3.038-7.962-3.038-11,0l-12,12c-3.038,3.038-3.038,7.962,0,11 c3.038,3.038,7.962,3.038,11,0l12-12C30.538,12.462,30.538,7.538,27.5,4.5z M26.086,14.086l-12,12c-2.253,2.253-5.919,2.253-8.172,0 c-2.253-2.253-2.253-5.919,0-8.172l12-12c2.253-2.253,5.919-2.253,8.172,0C28.339,8.167,28.339,11.833,26.086,14.086z M8,17l7,7l9-9 l-7-7L8,17z M15,21.172L10.828,17L17,10.828L21.172,15L15,21.172z"></path> </g></svg>